<svg width="30" height="30" viewBox="0 0 30 30" fill="none" xmlns="http://www.w3.org/2000/svg">
<g filter="url(#filter0_d_62_423)">
<path fill-rule="evenodd" clip-rule="evenodd" d="M23 0C24.6569 0 26 1.34315 26 3V19C26 20.6569 24.6569 22 23 22H7C5.34315 22 4 20.6569 4 19V3C4 1.34315 5.34315 0 7 0H23ZM23 2C23.5523 2 24 2.44772 24 3V19C24 19.5523 23.5523 20 23 20H18V12.9999H20.0762C20.5066 12.9999 20.8887 12.7245 21.0249 12.3161L21.4679 10.9871C21.6298 10.5014 21.2683 9.99992 20.7564 9.99992H18V7.99992C18 7.49992 18.5 6.99992 19 6.99992H21C21.5523 6.99992 22 6.5522 22 5.99992V5.31393C22 4.99091 21.7937 4.7013 21.4813 4.61887C20.1705 4.27295 19 4.27295 19 4.27295C16.5 4.27295 15 5.99992 15 7.49992V9.99992H13C12.4477 9.99992 12 10.4476 12 10.9999V11.9999C12 12.5522 12.4477 12.9999 13 12.9999H15V20H7C6.44772 20 6 19.5523 6 19V3C6 2.44772 6.44772 2 7 2H23Z" fill="#151618"/>
</g>
<defs>
<filter id="filter0_d_62_423" x="0" y="0" width="30" height="30" filterUnits="userSpaceOnUse" color-interpolation-filters="sRGB">
<feFlood flood-opacity="0" result="BackgroundImageFix"/>
<feColorMatrix in="SourceAlpha" type="matrix" values="0 0 0 0 0 0 0 0 0 0 0 0 0 0 0 0 0 0 127 0" result="hardAlpha"/>
<feOffset dy="4"/>
<feGaussianBlur stdDeviation="2"/>
<feComposite in2="hardAlpha" operator="out"/>
<feColorMatrix type="matrix" values="0 0 0 0 0 0 0 0 0 0 0 0 0 0 0 0 0 0 0.25 0"/>
<feBlend mode="normal" in2="BackgroundImageFix" result="effect1_dropShadow_62_423"/>
<feBlend mode="normal" in="SourceGraphic" in2="effect1_dropShadow_62_423" result="shape"/>
</filter>
</defs>
</svg>
